<?xml version="1.0" encoding="utf-8"?>
<!-- Generator: Adobe Illustrator 26.1.0, SVG Export Plug-In . SVG Version: 6.00 Build 0)  -->
<svg version="1.1" id="Layer_1" xmlns="http://www.w3.org/2000/svg" xmlns:xlink="http://www.w3.org/1999/xlink" x="0px" y="0px"
	 viewBox="0 0 543 543" style="enable-background:new 0 0 543 543;" xml:space="preserve">
<g>
	<g>
		<path d="M512.3,33.4c-6-6-15.8-6-21.8,0L442.9,81c-17.6-13.6-39.7-21.8-63.7-21.8H162.8c-57.6,0-104.5,46.9-104.5,104.5v216.3
			c0,57.6,46.9,104.5,104.5,104.5h216.3c57.6,0,104.5-46.9,104.5-104.5V163.7c0-22.5-7.2-43.4-19.4-60.5l48-48
			C518.3,49.2,518.3,39.4,512.3,33.4z M379.2,460.5H260.5l135.7-133.2c1.1-1.1,2.9-1.1,4,0l59.3,58.6
			C456.4,427.6,421.6,460.5,379.2,460.5z M459.6,163.7v193.5l-45-44.5c-9.1-9-23.8-9-32.8,0L231.1,460.5h-68.3
			c-44.4,0-80.5-36.1-80.5-80.5V163.7c0-44.4,36.1-80.5,80.5-80.5h216.3c17.3,0,33.4,5.5,46.6,14.9l-99.4,99.4l0.7-76
			c0.1-8.5-6.8-15.5-15.3-15.6c-8.6,0-15.5,6.8-15.6,15.3L295.1,235c0,0,0,0,0,0.1c0,0,0,0.1,0,0.1c0,0,0,0,0,0.1
			c0,0.3,0.1,0.7,0.1,1c0,0.6,0.1,1.2,0.2,1.8c0,0.1,0,0.1,0,0.2c0.1,0.5,0.3,0.9,0.4,1.4c0.1,0.4,0.2,0.9,0.4,1.3
			c0,0.1,0.1,0.1,0.1,0.2c0.2,0.5,0.5,0.9,0.7,1.4c0.1,0.2,0.2,0.3,0.3,0.5c0.1,0.2,0.2,0.5,0.4,0.7c0,0,0.1,0.1,0.1,0.1
			c0.3,0.4,0.6,0.8,1,1.2c0.3,0.4,0.6,0.7,0.9,1.1c0,0,0,0,0,0.1c0,0,0,0,0,0c0.3,0.3,0.8,0.6,1.1,0.9c0.4,0.3,0.7,0.6,1.1,0.9
			c0,0,0.1,0.1,0.1,0.1c0.3,0.2,0.7,0.3,1,0.5c0.1,0,0.2,0.1,0.2,0.1c0.4,0.2,0.8,0.5,1.3,0.7c0.1,0,0.1,0,0.2,0.1
			c0.5,0.2,0.9,0.3,1.4,0.4c0.4,0.1,0.9,0.3,1.3,0.4c0.1,0,0.1,0,0.2,0c0.6,0.1,1.3,0.1,1.9,0.2c0.3,0,0.6,0.1,1,0.1
			c0,0,0.1,0,0.1,0c0,0,0,0,0,0c0,0,0.1,0,0.1,0l113.8-1.1c8.5-0.1,15.4-7,15.3-15.6c-0.1-8.5-7-15.3-15.4-15.3c-0.1,0-0.1,0-0.1,0
			l-76,0.7l98.9-98.9C455,133,459.6,147.8,459.6,163.7z"/>
		<path d="M176.6,220.3c-29.3,0-53.1,23.8-53.1,53.1s23.8,53.1,53.1,53.1c0.5,0,1,0,1.4-0.1c28.6-0.8,51.6-24.3,51.6-53.1
			C229.6,244.1,205.8,220.3,176.6,220.3z M176.6,305.9c-0.4,0-0.7,0-1.1,0.1c-17.4-0.6-31.4-15-31.4-32.5
			c0-17.9,14.6-32.5,32.5-32.5c17.9,0,32.5,14.6,32.5,32.5C209.1,291.3,194.5,305.8,176.6,305.9z"/>
	</g>
</g>
</svg>
