<svg id="gr05" xmlns="http://www.w3.org/2000/svg" xmlns:xlink="http://www.w3.org/1999/xlink" width="150" height="150" viewBox="0 0 150 150">
  <defs>
    <clipPath id="clip-path">
      <rect id="Rectangle_801" data-name="Rectangle 801" width="86.075" height="86.075" fill="none"/>
    </clipPath>
  </defs>
  <rect id="Rectangle_802" data-name="Rectangle 802" width="150" height="150" fill="none"/>
  <g id="Group_1757" data-name="Group 1757" transform="translate(-78.35 -586.51)">
    <g id="Group_1757-2" data-name="Group 1757" transform="translate(110.18 618.472)">
      <g id="Group_1757-3" data-name="Group 1757" clip-path="url(#clip-path)">
        <path id="Path_6926" data-name="Path 6926" d="M73.4,86.075H12.674A12.688,12.688,0,0,1,0,73.4V12.674A12.688,12.688,0,0,1,12.674,0H73.4A12.688,12.688,0,0,1,86.075,12.674V73.4A12.688,12.688,0,0,1,73.4,86.075M12.674,1.334A11.352,11.352,0,0,0,1.334,12.674V73.4A11.352,11.352,0,0,0,12.674,84.74H73.4A11.353,11.353,0,0,0,84.74,73.4V12.674A11.353,11.353,0,0,0,73.4,1.334Z" fill="#fff"/>
        <path id="Path_6927" data-name="Path 6927" d="M55.825,110.5H50.484v-1.334h5.341a11.243,11.243,0,0,0,4.769-1.049l.562,1.21a12.564,12.564,0,0,1-5.33,1.173m-10.679,0H39.808v-1.334h5.338Zm-10.676,0H29.132v-1.334H34.47Zm-10.676,0h-1.12a12.643,12.643,0,0,1-4.362-.77l.459-1.253a11.308,11.308,0,0,0,3.9.689h1.12Zm-10.174-3.8a12.741,12.741,0,0,1-2.937-4.753l1.262-.433a11.409,11.409,0,0,0,2.628,4.253Zm51.959-.78-1.027-.852a11.367,11.367,0,0,0,2.266-4.454l1.294.326a12.717,12.717,0,0,1-2.533,4.981M11.334,96.455H10V91.117h1.334Zm57.161-1H67.161V90.122H68.5Zm-57.161-9.68H10V80.441h1.334Zm57.161-1H67.161V79.446H68.5ZM11.334,75.1H10V69.765h1.334Zm57.161-1H67.161V68.77H68.5ZM11.337,64.441,10,64.414a12.545,12.545,0,0,1,1.341-5.425l1.193.6a11.215,11.215,0,0,0-1.2,4.852M67.1,63.5a11.2,11.2,0,0,0-1.6-4.734l1.138-.7a12.522,12.522,0,0,1,1.787,5.294ZM15.709,55.725l-.82-1.052a12.7,12.7,0,0,1,5.056-2.378l.286,1.3a11.363,11.363,0,0,0-4.522,2.127m46.314-.546a11.2,11.2,0,0,0-4.683-1.744l.177-1.322a12.505,12.505,0,0,1,5.237,1.95ZM52.1,53.334H46.757V52H52.1Zm-10.676,0H36.081V52h5.338Zm-10.676,0H25.405V52h5.338Z" transform="translate(-5.552 -28.869)" fill="#fff"/>
        <path id="Path_6928" data-name="Path 6928" d="M107.858,21.488l.079,2.225,9.325-.34L80.872,59.763l.341-9.326-2.225-.079L78.5,63.708l13.348-.486L91.772,61l-9.33.342,36.4-36.4-.342,9.33,2.225.079L121.207,21Z" transform="translate(-43.583 -11.661)" fill="#fff"/>
      </g>
    </g>
  </g>
</svg>
