<?xml version="1.0" standalone="no"?>
<!DOCTYPE svg PUBLIC "-//W3C//DTD SVG 20010904//EN"
 "http://www.w3.org/TR/2001/REC-SVG-20010904/DTD/svg10.dtd">
<svg version="1.0" xmlns="http://www.w3.org/2000/svg"
 width="543.000000pt" height="543.000000pt" viewBox="0 0 543.000000 543.000000"
 preserveAspectRatio="xMidYMid meet">
<metadata>
Created by potrace 1.14, written by Peter Selinger 2001-2017
</metadata>
<g transform="translate(0.000000,543.000000) scale(0.100000,-0.100000)"
fill="#000000" stroke="none">
<path d="M725 5285 c-143 -31 -280 -110 -387 -223 -83 -88 -129 -165 -170
-283 l-33 -94 0 -1965 0 -1965 34 -97 c78 -228 256 -404 486 -485 l80 -28
1950 -3 c1929 -2 1950 -2 2030 18 224 57 399 198 500 405 81 165 75 -10 75
2155 0 2165 6 1990 -75 2155 -100 206 -275 348 -499 405 -78 20 -106 20 -2005
19 -1547 0 -1938 -3 -1986 -14z m4000 -94 c194 -65 332 -184 415 -356 75 -157
70 -6 70 -2115 0 -2109 5 -1958 -70 -2115 -50 -104 -133 -202 -218 -258 -88
-59 -113 -70 -202 -98 l-75 -24 -1935 0 c-1860 0 -1937 1 -1995 19 -270 84
-456 298 -494 570 -15 108 -15 3704 0 3812 22 161 94 301 212 411 96 90 254
164 377 176 19 2 892 4 1940 3 l1905 -1 70 -24z"/>
<path d="M4380 4733 c-212 -8 -389 -19 -394 -23 -4 -5 -5 -36 -1 -70 l7 -62
272 7 271 7 -1080 -1081 c-593 -594 -1080 -1079 -1082 -1078 -1 2 2 102 7 222
5 121 9 244 10 273 l0 52 -70 0 c-60 0 -70 -3 -70 -17 0 -10 -7 -189 -15 -397
-8 -209 -12 -382 -10 -385 3 -2 184 2 402 10 l398 14 0 70 c0 58 -3 70 -16 69
-9 -1 -133 -4 -275 -8 l-259 -7 1080 1080 c594 595 1082 1081 1084 1081 3 0
-4 -209 -15 -432 l-6 -118 70 0 70 0 6 83 c5 78 26 627 26 695 0 20 -5 31 -12
31 -7 -1 -186 -8 -398 -16z"/>
<path d="M1320 3875 l0 -45 163 2 162 3 0 40 0 40 -162 3 -163 2 0 -45z"/>
<path d="M1960 3875 l0 -45 166 0 165 0 -3 43 -3 42 -162 3 -163 2 0 -45z"/>
<path d="M2600 3875 l0 -45 165 0 165 0 0 45 0 45 -165 0 -165 0 0 -45z"/>
<path d="M3240 3875 c0 -19 0 -38 0 -42 -1 -4 30 -14 68 -23 38 -9 101 -32
140 -52 l72 -36 20 28 c11 15 20 33 20 39 0 16 -129 78 -212 101 -102 28 -108
27 -108 -15z"/>
<path d="M910 3876 c-94 -33 -221 -104 -220 -124 1 -4 11 -20 24 -36 l24 -29
30 21 c43 31 171 91 209 98 35 7 37 12 27 63 -8 36 -10 37 -94 7z"/>
<path d="M3754 3530 l-30 -20 33 -67 c18 -38 40 -103 50 -145 17 -81 19 -82
71 -72 28 6 31 9 26 38 -17 96 -91 286 -112 286 -4 0 -21 -9 -38 -20z"/>
<path d="M450 3443 c-26 -70 -46 -151 -55 -219 l-6 -51 32 -7 c55 -11 56 -10
63 62 4 37 18 99 32 137 14 39 28 77 30 85 4 11 -7 21 -31 33 -20 9 -37 17
-40 17 -2 0 -13 -26 -25 -57z"/>
<path d="M3822 2748 l3 -163 43 -3 42 -3 0 165 0 166 -45 0 -45 0 2 -162z"/>
<path d="M392 2688 l3 -163 43 -3 42 -3 0 165 0 166 -45 0 -45 0 2 -162z"/>
<path d="M3822 2108 l3 -163 43 -3 42 -3 0 165 0 166 -45 0 -45 0 2 -162z"/>
<path d="M392 2048 l3 -163 43 -3 42 -3 0 165 0 166 -45 0 -45 0 2 -162z"/>
<path d="M3820 1465 l0 -165 45 0 45 0 0 165 0 165 -45 0 -45 0 0 -165z"/>
<path d="M392 1408 l3 -163 43 -3 42 -3 0 165 0 166 -45 0 -45 0 2 -162z"/>
<path d="M3791 958 c-16 -54 -44 -108 -89 -177 l-36 -54 30 -23 c16 -13 34
-22 39 -21 20 7 106 155 130 223 26 74 25 76 -31 88 -29 7 -31 5 -43 -36z"/>
<path d="M480 935 c-19 -6 -36 -19 -38 -28 -6 -31 101 -211 155 -259 19 -17
21 -17 48 12 l28 29 -35 43 c-47 58 -85 119 -106 172 l-17 43 -35 -12z"/>
<path d="M3355 522 c-66 -24 -83 -26 -302 -30 l-233 -4 0 -44 0 -44 194 0
c206 0 296 11 399 50 31 12 57 23 57 25 0 11 -34 75 -39 74 -3 -1 -37 -13 -76
-27z"/>
<path d="M911 507 c-22 -57 -20 -60 49 -79 36 -10 111 -21 168 -25 l102 -6 0
46 0 47 -77 0 c-69 0 -165 16 -215 35 -13 5 -20 0 -27 -18z"/>
<path d="M1540 445 l0 -45 165 0 165 0 0 45 0 45 -165 0 -165 0 0 -45z"/>
<path d="M2180 445 l0 -45 165 0 165 0 0 45 0 45 -165 0 -165 0 0 -45z"/>
</g>
</svg>
